<svg width="617" height="127" viewBox="0 0 617 127" fill="none" xmlns="http://www.w3.org/2000/svg">
<path d="M37.856 114.024C26.5067 114.024 17.4187 111.891 10.592 107.624C3.76533 103.272 0.352 96.6587 0.352 87.784C0.352 83.0907 1.16267 79.5067 2.784 77.032C4.40533 74.5573 6.79467 73.32 9.952 73.32C12.256 73.32 14.1333 73.9173 15.584 75.112C17.0347 76.3067 17.76 77.8427 17.76 79.72C17.76 81.4267 17.632 82.92 17.376 84.2C17.376 84.5413 17.2907 85.1387 17.12 85.992C17.0347 86.8453 16.992 87.7413 16.992 88.68C16.992 92.52 18.912 95.3787 22.752 97.256C26.6773 99.1333 32.1387 100.072 39.136 100.072C46.3893 100.072 52.064 98.792 56.16 96.232C60.256 93.5867 62.304 89.9173 62.304 85.224C62.304 82.3227 61.3653 79.848 59.488 77.8C57.6107 75.6667 55.264 73.9173 52.448 72.552C49.632 71.1013 45.664 69.352 40.544 67.304C33.9733 64.744 28.5973 62.312 24.416 60.008C20.32 57.704 16.7787 54.5893 13.792 50.664C10.8907 46.6533 9.44 41.704 9.44 35.816C9.44 29.672 11.0613 24.2107 14.304 19.432C17.632 14.6533 22.368 10.9413 28.512 8.296C34.7413 5.65066 42.0373 4.328 50.4 4.328C56.6293 4.328 62.3467 5.26666 67.552 7.144C72.7573 8.93599 76.896 11.7093 79.968 15.464C83.1253 19.2187 84.704 23.8267 84.704 29.288C84.704 34.664 83.8933 38.7173 82.272 41.448C80.6507 44.1787 78.2613 45.544 75.104 45.544C72.8853 45.544 71.008 44.8613 69.472 43.496C68.0213 42.1307 67.296 40.5093 67.296 38.632C67.296 37.0107 67.424 35.5173 67.68 34.152C67.936 31.592 68.064 29.9707 68.064 29.288C68.064 25.704 66.3147 22.9733 62.816 21.096C59.3173 19.2187 54.9653 18.28 49.76 18.28C42.4213 18.28 36.7893 19.6453 32.864 22.376C29.024 25.0213 27.104 28.776 27.104 33.64C27.104 36.8827 28.0853 39.656 30.048 41.96C32.096 44.264 34.6133 46.184 37.6 47.72C40.5867 49.256 44.768 51.0907 50.144 53.224C56.6293 55.8693 61.8347 58.2587 65.76 60.392C69.6853 62.5253 73.0133 65.4267 75.744 69.096C78.56 72.7653 79.968 77.288 79.968 82.664C79.968 92.7333 76.128 100.499 68.448 105.96C60.8533 111.336 50.656 114.024 37.856 114.024ZM209.422 84.456C210.531 84.456 211.385 84.968 211.982 85.992C212.665 87.016 213.006 88.424 213.006 90.216C213.006 93.544 212.195 96.1893 210.574 98.152C202.126 108.477 193.123 113.64 183.566 113.64C175.289 113.64 168.675 110.44 163.726 104.04C158.777 97.64 156.302 88.4667 156.302 76.52C156.302 73.6187 156.43 70.7173 156.686 67.816C151.054 68.84 144.91 69.608 138.254 70.12C133.817 70.4613 130.787 70.6747 129.166 70.76C127.459 79.464 125.07 90.1307 121.998 102.76C120.206 110.184 116.793 113.896 111.758 113.896C106.297 113.896 103.566 111.421 103.566 106.472C103.566 105.363 103.779 103.827 104.206 101.864C107.107 90.1733 109.411 80.2747 111.118 72.168L104.974 72.424C102.158 72.424 100.11 71.9547 98.83 71.016C97.55 69.992 96.91 68.3707 96.91 66.152C96.91 63.336 97.7207 61.288 99.342 60.008C100.963 58.6427 103.651 57.8747 107.406 57.704L114.19 57.448C116.409 45.416 117.518 36.2427 117.518 29.928C117.518 25.9173 116.921 23.1867 115.726 21.736C114.531 20.2853 112.953 19.56 110.99 19.56C105.017 19.56 98.2753 24.552 90.766 34.536C89.6567 35.9867 88.4193 36.712 87.054 36.712C85.8593 36.712 84.8353 36.1573 83.982 35.048C83.1287 33.9387 82.702 32.5307 82.702 30.824C82.702 28.1787 83.7687 25.3627 85.902 22.376C89.6567 17.1707 94.3927 12.904 100.11 9.576C105.827 6.16266 111.63 4.45599 117.518 4.45599C123.065 4.45599 127.331 6.37599 130.318 10.216C133.39 13.9707 134.926 19.8587 134.926 27.88C134.926 34.9627 133.902 44.5627 131.854 56.68L144.398 56.04C149.774 55.784 154.382 55.3573 158.222 54.76C159.758 45.3733 162.105 36.584 165.262 28.392C168.419 20.2 172.345 13.544 177.038 8.424C181.731 3.304 186.979 0.743996 192.782 0.743996C197.049 0.743996 200.419 2.45066 202.894 5.864C205.369 9.192 206.606 13.5867 206.606 19.048C206.606 40.2107 195.811 54.888 174.222 63.08C173.966 66.4933 173.838 70.0347 173.838 73.704C173.838 82.664 174.947 89.0213 177.166 92.776C179.385 96.5307 182.499 98.408 186.51 98.408C190.009 98.408 193.209 97.512 196.11 95.72C199.011 93.8427 202.297 90.6853 205.966 86.248C206.99 85.0533 208.142 84.456 209.422 84.456ZM192.142 11.88C190.265 11.88 188.259 13.5867 186.126 17C184.078 20.4133 182.115 25.064 180.238 30.952C178.361 36.84 176.867 43.2827 175.758 50.28C182.585 47.464 187.619 43.4533 190.862 38.248C194.105 33.0427 195.726 26.344 195.726 18.152C195.726 16.1893 195.385 14.6533 194.702 13.544C194.019 12.4347 193.166 11.88 192.142 11.88ZM245.14 113.64C237.545 113.64 230.676 111.933 224.532 108.52C218.473 105.107 213.652 100.115 210.068 93.544C206.484 86.888 204.692 78.952 204.692 69.736C204.692 56.7653 207.039 45.3307 211.732 35.432C216.511 25.5333 222.953 17.896 231.06 12.52C239.252 7.14399 248.297 4.45599 258.196 4.45599C265.791 4.45599 272.617 6.16266 278.676 9.576C284.82 12.9893 289.684 18.024 293.268 24.68C296.852 31.2507 298.644 39.144 298.644 48.36C298.644 61.3307 296.255 72.7653 291.476 82.664C286.783 92.5627 280.34 100.2 272.148 105.576C264.041 110.952 255.039 113.64 245.14 113.64ZM246.42 98.536C253.076 98.536 258.921 96.488 263.956 92.392C269.076 88.296 273.001 82.6213 275.732 75.368C278.463 68.0293 279.828 59.752 279.828 50.536C279.828 40.3813 277.695 32.7013 273.428 27.496C269.161 22.2053 263.657 19.56 256.916 19.56C250.345 19.56 244.543 21.608 239.508 25.704C234.473 29.7147 230.548 35.3893 227.732 42.728C224.916 49.9813 223.508 58.2587 223.508 67.56C223.508 77.7147 225.641 85.4373 229.908 90.728C234.175 95.9333 239.679 98.536 246.42 98.536ZM406.344 36.712C406.344 43.9653 404.467 50.6213 400.712 56.68C396.957 62.7387 391.496 67.688 384.328 71.528C377.16 75.368 368.627 77.6293 358.728 78.312L353.224 109.16C351.091 121.021 345.288 126.952 335.816 126.952C330.611 126.952 325.789 125.416 321.352 122.344C317 119.272 313.501 114.579 310.856 108.264C308.211 101.949 306.888 94.184 306.888 84.968C306.888 67.6453 309.661 52.968 315.208 40.936C320.84 28.8187 328.349 19.7733 337.736 13.8C347.208 7.74133 357.619 4.712 368.968 4.712C376.989 4.712 383.773 6.12 389.32 8.936C394.952 11.752 399.176 15.592 401.992 20.456C404.893 25.2347 406.344 30.6533 406.344 36.712ZM361.032 65.128C378.525 62.9093 387.272 53.8213 387.272 37.864C387.272 32.232 385.395 27.6667 381.64 24.168C377.971 20.584 372.253 18.792 364.488 18.792C355.699 18.792 348.019 21.5653 341.448 27.112C334.963 32.6587 329.928 40.3813 326.344 50.28C322.845 60.0933 321.096 71.3147 321.096 83.944C321.096 89.2347 321.608 93.928 322.632 98.024C323.741 102.12 325.107 105.32 326.728 107.624C328.435 109.843 330.056 110.952 331.592 110.952C333.725 110.952 335.347 108.008 336.456 102.12L340.68 77.928C337.352 77.416 335.901 77.2027 336.328 77.288C333.768 76.8613 332.104 76.0933 331.336 74.984C330.568 73.7893 330.184 72.296 330.184 70.504C330.184 68.6267 330.696 67.1333 331.72 66.024C332.829 64.9147 334.323 64.36 336.2 64.36C337.053 64.36 337.693 64.4027 338.12 64.488C340.168 64.8293 341.747 65.0427 342.856 65.128C343.965 58.472 345.544 49.5547 347.592 38.376C348.104 35.4747 349.256 33.4267 351.048 32.232C352.925 30.952 355.101 30.312 357.576 30.312C360.392 30.312 362.397 30.8667 363.592 31.976C364.872 33 365.512 34.664 365.512 36.968C365.512 38.3333 365.427 39.4427 365.256 40.296L361.032 65.128ZM501.107 5.22399C503.326 5.22399 505.203 5.77866 506.739 6.88799C508.275 7.91199 509.043 9.192 509.043 10.728C509.043 13.4587 508.19 15.6773 506.483 17.384C504.776 19.0053 502.344 19.816 499.187 19.816C494.238 19.816 490.483 19.8587 487.923 19.944C487.752 20.968 486.984 25.576 485.619 33.768C484.083 42.8987 483.144 48.488 482.803 50.536L480.115 67.304C478.238 79.848 476.744 90.344 475.635 98.792C477.427 98.7067 479.859 98.664 482.931 98.664C487.454 98.664 490.526 99.2613 492.147 100.456C493.768 101.651 494.579 103.443 494.579 105.832C494.579 108.051 493.683 109.928 491.891 111.464C490.184 113 487.752 113.768 484.595 113.768C482.462 113.768 479.091 113.683 474.483 113.512C470.216 113.341 467.4 113.256 466.035 113.256C460.659 113.256 454.771 113.725 448.371 114.664C445.555 115.091 443.55 115.304 442.355 115.304C440.478 115.304 438.899 114.792 437.619 113.768C436.339 112.744 435.699 111.251 435.699 109.288C435.699 106.216 437.064 103.827 439.795 102.12C442.526 100.413 446.366 99.5173 451.315 99.432L457.331 99.304L457.715 96.488C459.763 82.8347 461.256 73.192 462.195 67.56L465.011 50.792C466.718 40.8933 468.254 30.696 469.619 20.2L458.867 20.328C455.795 20.328 453.662 19.8587 452.467 18.92C451.358 17.896 450.803 16.488 450.803 14.696C450.803 8.89333 454.984 5.77866 463.347 5.352C467.272 5.18133 472.051 5.09599 477.683 5.09599L501.107 5.22399ZM608.898 6.75999C611.543 7.27199 613.506 8.16799 614.786 9.448C616.151 10.728 616.834 12.2213 616.834 13.928C616.834 16.744 616.023 18.792 614.402 20.072C612.866 21.352 610.391 21.864 606.978 21.608C599.298 21.0107 593.282 20.6267 588.93 20.456C584.663 20.2 579.031 20.0293 572.034 19.944C568.877 35.6453 565.975 51.432 563.33 67.304C562.391 73.1067 561.41 79.848 560.386 87.528C559.362 95.1227 558.679 101.267 558.338 105.96C558.167 108.435 557.143 110.355 555.266 111.72C553.389 113 551.127 113.64 548.482 113.64C545.666 113.64 543.49 112.957 541.954 111.592C540.418 110.227 539.65 108.435 539.65 106.216C539.65 104.168 539.949 100.797 540.546 96.104C541.229 91.3253 541.997 86.3333 542.85 81.128C543.789 75.9227 544.514 71.4 545.026 67.56C545.965 61.0747 547.031 54.632 548.226 48.232C549.421 41.832 550.615 35.7733 551.81 30.056C552.066 28.776 552.365 27.3253 552.706 25.704C553.047 23.9973 553.431 22.12 553.858 20.072C545.495 20.328 538.925 21.0107 534.146 22.12C529.367 23.2293 525.954 24.808 523.906 26.856C521.943 28.8187 520.962 31.3787 520.962 34.536C520.962 37.4373 521.815 40.2107 523.522 42.856C523.863 43.4533 524.034 44.0933 524.034 44.776C524.034 46.3973 523.053 47.9333 521.09 49.384C519.213 50.7493 517.25 51.432 515.202 51.432C513.751 51.432 512.557 51.0053 511.618 50.152C509.911 48.7013 508.503 46.6533 507.394 44.008C506.285 41.2773 505.73 38.2053 505.73 34.792C505.73 27.5387 508.077 21.736 512.77 17.384C517.549 12.9467 524.759 9.704 534.402 7.656C544.13 5.60799 556.589 4.58399 571.778 4.58399C581.165 4.58399 588.631 4.75466 594.178 5.09599C599.81 5.43733 604.717 5.99199 608.898 6.75999Z" fill="#F56700"/>
</svg>
