<svg xmlns="http://www.w3.org/2000/svg" viewBox="0 0 48.71 48.81"><defs><style>.cls-1{fill:none;stroke:#231f20;stroke-miterlimit:10;stroke-width:4.29px;}</style></defs><g id="Layer_2" data-name="Layer 2"><g id="Layer_1-2" data-name="Layer 1"><path class="cls-1" d="M46.56,15.68a13.13,13.13,0,0,1-1,4.94,13.54,13.54,0,0,1-.82,1.43L41.7,26,25.16,45.81c-1,1.18-.49,1.2-1.76-.3,0,0-11.53-14.42-15.48-18.71-2.87-3.11-5.78-6.61-5.78-11.12A13.66,13.66,0,0,1,15.92,2.14,13.83,13.83,0,0,1,24.35,5a13.86,13.86,0,0,1,8.44-2.84A13.65,13.65,0,0,1,46.56,15.68Z"/></g></g></svg>